<svg xmlns="http://www.w3.org/2000/svg" xmlns:xlink="http://www.w3.org/1999/xlink" viewBox="0 0 500 500"><defs><linearGradient id="freepik--Degradado_sin_nombre_7--inject-18" x1="2184.59" y1="-2018.4" x2="2222.22" y2="-2058.5" gradientTransform="translate(1455.46 3068.63) rotate(-68.17)" gradientUnits="userSpaceOnUse"><stop offset="0" stop-color="#455a64" stop-opacity="0"></stop><stop offset="0.3" stop-color="#3d7f7e" stop-opacity="0.28"></stop><stop offset="0.99" stop-color="#27dcbe" stop-opacity="0.99"></stop><stop offset="1" stop-color="#BA68C8"></stop></linearGradient><linearGradient id="freepik--Degradado_sin_nombre_15--inject-18" x1="116.05" y1="387.52" x2="163.02" y2="434.49" gradientUnits="userSpaceOnUse"><stop offset="0" stop-color="#BA68C8"></stop><stop offset="0.8" stop-color="#455a64"></stop><stop offset="1" stop-color="#455a64" stop-opacity="0"></stop></linearGradient><linearGradient id="freepik--Degradado_sin_nombre_15-2--inject-18" x1="114.79" y1="396.99" x2="134.42" y2="416.63" xlink:href="freepik--#Degradado_sin_nombre_15--inject-18"></linearGradient><linearGradient id="freepik--Degradado_sin_nombre_15-3--inject-18" x1="273.5" y1="81.83" x2="320.47" y2="128.8" xlink:href="freepik--#Degradado_sin_nombre_15--inject-18"></linearGradient><linearGradient id="freepik--Degradado_sin_nombre_15-4--inject-18" x1="301.7" y1="97.67" x2="321.34" y2="117.3" xlink:href="freepik--#Degradado_sin_nombre_15--inject-18"></linearGradient><linearGradient id="freepik--Degradado_sin_nombre_15-5--inject-18" x1="272.24" y1="91.31" x2="291.87" y2="110.95" xlink:href="freepik--#Degradado_sin_nombre_15--inject-18"></linearGradient></defs><g id="freepik--Stars--inject-18"><path d="M349.76,341.79a8.39,8.39,0,1,1,8.39-8.39A8.39,8.39,0,0,1,349.76,341.79Zm0-16.1a7.71,7.71,0,1,0,7.71,7.71A7.72,7.72,0,0,0,349.76,325.69Z" style="fill:#BA68C8;opacity:0.5"></path><path d="M352.12,333.4a2.36,2.36,0,1,1-2.36-2.36A2.36,2.36,0,0,1,352.12,333.4Z" style="fill:#fff"></path><path d="M243.45,191a13.22,13.22,0,1,1,13.22-13.21A13.23,13.23,0,0,1,243.45,191Zm0-25.75A12.54,12.54,0,1,0,256,177.75,12.55,12.55,0,0,0,243.45,165.21Z" style="fill:#BA68C8;opacity:0.5"></path><path d="M247.23,177.75a3.78,3.78,0,1,1-3.78-3.78A3.77,3.77,0,0,1,247.23,177.75Z" style="fill:#fff"></path><path d="M349.21,139.76a8.39,8.39,0,1,1,8.39-8.39A8.4,8.4,0,0,1,349.21,139.76Zm0-16.1a7.71,7.71,0,1,0,7.71,7.71A7.72,7.72,0,0,0,349.21,123.66Z" style="fill:#BA68C8;opacity:0.5"></path><path d="M351.58,131.37a2.37,2.37,0,1,1-2.37-2.36A2.36,2.36,0,0,1,351.58,131.37Z" style="fill:#fff"></path><path d="M45.68,197.73a8.39,8.39,0,1,1,8.39-8.39A8.39,8.39,0,0,1,45.68,197.73Zm0-16.1a7.71,7.71,0,1,0,7.71,7.71A7.72,7.72,0,0,0,45.68,181.63Z" style="fill:#BA68C8;opacity:0.5"></path><path d="M48,189.34A2.36,2.36,0,1,1,45.68,187,2.35,2.35,0,0,1,48,189.34Z" style="fill:#fff"></path><g id="freepik--stars--inject-18"><path d="M386.48,120.51a1.33,1.33,0,1,1,1.87-.2A1.33,1.33,0,0,1,386.48,120.51Z" style="fill:#f0f0f0"></path><path d="M382.54,124.34a.77.77,0,0,1-.12-1.09.78.78,0,0,1,1.09-.12.79.79,0,0,1,.12,1.09A.77.77,0,0,1,382.54,124.34Z" style="fill:#fafafa"></path><path d="M274.47,330.1a1.08,1.08,0,1,1-1.53,0A1.09,1.09,0,0,1,274.47,330.1Z" style="fill:#fafafa"></path><path d="M284.45,334.83a1.75,1.75,0,0,1,.05,2.49,1.76,1.76,0,1,1-.05-2.49Z" style="fill:#fafafa"></path><g style="opacity:0.5"><path d="M314.35,205.42a1.08,1.08,0,1,1-.6,1.41A1.09,1.09,0,0,1,314.35,205.42Z" style="fill:#fafafa"></path><path d="M322.74,198.24a1.77,1.77,0,1,1-1,2.3A1.78,1.78,0,0,1,322.74,198.24Z" style="fill:#fafafa"></path></g><g style="opacity:0.5"><path d="M330.08,370.57a1.77,1.77,0,1,1-1.77-1.76A1.77,1.77,0,0,1,330.08,370.57Z" style="fill:#fafafa"></path><path d="M324.81,375.39a1.06,1.06,0,1,1-1.05-1.05A1,1,0,0,1,324.81,375.39Z" style="fill:#fafafa"></path><path d="M321.82,368.81A.85.85,0,1,1,321,368,.85.85,0,0,1,321.82,368.81Z" style="fill:#fafafa"></path></g><g style="opacity:0.5"><path d="M63.68,365a1.76,1.76,0,1,1-1.76-1.76A1.76,1.76,0,0,1,63.68,365Z" style="fill:#fafafa"></path><path d="M58.41,369.86a1,1,0,1,1-1-1.05A1,1,0,0,1,58.41,369.86Z" style="fill:#fafafa"></path><path d="M55.43,363.28a.85.85,0,1,1-.85-.85A.85.85,0,0,1,55.43,363.28Z" style="fill:#fafafa"></path></g><path d="M192.78,121.77a1.08,1.08,0,1,1-1.08-1.08A1.08,1.08,0,0,1,192.78,121.77Z" style="fill:#fafafa"></path><path d="M197.87,107.6l2.44,2.41,3.36-.65a.39.39,0,0,1,.42.56L202.56,113l1.65,3a.39.39,0,0,1-.4.58l-3.38-.51-2.35,2.5a.39.39,0,0,1-.67-.21l-.56-3.38-3.1-1.45a.39.39,0,0,1,0-.7l3-1.58.43-3.4A.39.39,0,0,1,197.87,107.6Z" style="fill:#fafafa"></path><path d="M113,263.71l.38,2.63,2.37,1.17a.3.3,0,0,1,0,.54l-2.37,1.17-.39,2.63a.3.3,0,0,1-.51.16l-1.85-1.9-2.61.45a.3.3,0,0,1-.32-.44l1.23-2.34-1.23-2.35A.31.31,0,0,1,108,265l2.61.45,1.85-1.89A.31.31,0,0,1,113,263.71Z" style="fill:#fafafa"></path><path d="M348.05,94.43l2.6-.47,1.09-2.42a.3.3,0,0,1,.54,0l1.26,2.34,2.63.29a.3.3,0,0,1,.19.5l-1.83,1.92.54,2.59a.31.31,0,0,1-.43.34l-2.39-1.15L350,99.66a.3.3,0,0,1-.45-.3l.36-2.63-2-1.78A.3.3,0,0,1,348.05,94.43Z" style="fill:#fafafa"></path><path d="M189.87,373.3a1.33,1.33,0,1,1-1.82.48A1.32,1.32,0,0,1,189.87,373.3Z" style="fill:#f0f0f0"></path><path d="M193.17,368.91a.78.78,0,0,1,.29,1.06.77.77,0,0,1-1.06.28.77.77,0,1,1,.77-1.34Z" style="fill:#fafafa"></path><path d="M231.85,393.17l-2.51.87-.7,2.55a.3.3,0,0,1-.53.1l-1.6-2.11-2.65.12a.3.3,0,0,1-.26-.48l1.51-2.17-.93-2.48a.3.3,0,0,1,.37-.4l2.54.77,2.07-1.65a.3.3,0,0,1,.49.23l0,2.65,2.21,1.46A.3.3,0,0,1,231.85,393.17Z" style="fill:#fafafa"></path><path d="M403.86,205.87a1.77,1.77,0,1,1-1,2.3A1.77,1.77,0,0,1,403.86,205.87Z" style="fill:#fafafa"></path></g></g></svg>