<svg xmlns="http://www.w3.org/2000/svg" xmlns:xlink="http://www.w3.org/1999/xlink" viewBox="0 0 500 500"><defs><clipPath id="freepik--clip-path--inject-3"><circle cx="370.6" cy="215.06" r="55.94" transform="translate(4.69 438.01) rotate(-61.48)" style="fill:#fff;stroke:#263238;stroke-linecap:round;stroke-linejoin:round;stroke-width:1.0481425523757935px"></circle></clipPath><clipPath id="freepik--clip-path-2--inject-3"><circle cx="291.86" cy="95.61" r="27.78" style="fill:#fff;stroke:#263238;stroke-linecap:round;stroke-linejoin:round;stroke-width:1.0481425523757935px"></circle></clipPath></defs><g id="freepik--planet-1--inject-3"><circle cx="127.8" cy="152.21" r="21.49" style="fill:#7A91FD;stroke:#263238;stroke-linecap:round;stroke-linejoin:round;stroke-width:1.0481425523757935px"></circle><path d="M132.47,136.19a16.77,16.77,0,0,1,4.84-3.24,21.25,21.25,0,0,0-5.59-1.86,49.58,49.58,0,0,0-5.55,4.56c-7.51,7.18-5.43,6.43-16.51,10.9a18.56,18.56,0,0,0-2.92,1.49,21.12,21.12,0,0,0,1.3,12.58c4-1.32,9.22-3.42,11.61-5.93C123.74,150.39,124.28,144.09,132.47,136.19Z" style="fill:#263238;stroke:#263238;stroke-linecap:round;stroke-linejoin:round;stroke-width:1.0481425523757935px"></path><path d="M112.56,167.33a21.62,21.62,0,0,0,5.73,4.14c3.93-2.89,5.71-5.91,11.35-8.64,5-2.4,13.2-3.11,18.35-3.3a21.33,21.33,0,0,0,1.29-7.85c0-.37-.05-.73-.08-1.1a61.93,61.93,0,0,0-17.66,4.51C123.5,158.54,119.71,164.39,112.56,167.33Z" style="fill:#263238;stroke:#263238;stroke-linecap:round;stroke-linejoin:round;stroke-width:1.0481425523757935px"></path><path d="M133.38,144.56c3.84,1.8,9.66.67,14.19-.74a21.35,21.35,0,0,0-3.76-5.92C137.79,139.19,128.05,142.06,133.38,144.56Z" style="fill:#263238;stroke:#263238;stroke-linecap:round;stroke-linejoin:round;stroke-width:1.0481425523757935px"></path></g></svg>