<svg xmlns="http://www.w3.org/2000/svg" viewBox="0 0 500 500"><g id="freepik--Stars--inject-1--inject-13"><g id="freepik--stars--inject-1--inject-13"><path d="M181.69,248.3a1.56,1.56,0,1,1-1.56-1.56A1.55,1.55,0,0,1,181.69,248.3Z" style="fill:#fff"></path><circle cx="78.44" cy="223.71" r="1.56" style="fill:#fff"></circle><path d="M208.47,105.15a1.56,1.56,0,1,1-1.56-1.56A1.56,1.56,0,0,1,208.47,105.15Z" style="fill:#fff"></path><path d="M62.19,151.07a1.56,1.56,0,1,1-1.55-1.55A1.55,1.55,0,0,1,62.19,151.07Z" style="fill:#fff"></path><path d="M327.23,259.06a1.68,1.68,0,1,1-1.68-1.68A1.68,1.68,0,0,1,327.23,259.06Z" style="fill:#fff"></path><path d="M331.92,262a.84.84,0,1,1-.84-.84A.84.84,0,0,1,331.92,262Z" style="fill:#fff"></path><path d="M378,311.48a.84.84,0,1,1-.84-.84A.85.85,0,0,1,378,311.48Z" style="fill:#fff"></path><path d="M375.27,318.33a1.68,1.68,0,1,1-1.68-1.67A1.68,1.68,0,0,1,375.27,318.33Z" style="fill:#fff"></path><path d="M443.58,187.75a.84.84,0,0,1-.62,1.56.84.84,0,0,1,.62-1.56Z" style="fill:#fff"></path><path d="M449,192.83a1.68,1.68,0,1,1-2.18.94A1.67,1.67,0,0,1,449,192.83Z" style="fill:#fff"></path><path d="M325.35,131.82a.84.84,0,1,1-.62,1.56.84.84,0,0,1,.62-1.56Z" style="fill:#fff"></path><path d="M330.72,136.9a1.68,1.68,0,1,1-2.17.95A1.68,1.68,0,0,1,330.72,136.9Z" style="fill:#fff"></path><path d="M412.14,123.26a1.68,1.68,0,1,1-2.17.95A1.68,1.68,0,0,1,412.14,123.26Z" style="fill:#fff"></path><path d="M91.5,89.48a.78.78,0,1,1-1,.44A.78.78,0,0,1,91.5,89.48Z" style="fill:#fff"></path><path d="M96.49,94.2a1.56,1.56,0,1,1-2,.88A1.56,1.56,0,0,1,96.49,94.2Z" style="fill:#fff"></path><path d="M129.48,226.53a.78.78,0,1,1-.78-.78A.78.78,0,0,1,129.48,226.53Z" style="fill:#fff"></path><circle cx="133.02" cy="223.21" r="1.56" style="fill:#fff"></circle><g style="opacity:0.5"><path d="M334.22,195.89a1.77,1.77,0,1,1-1.76-1.76A1.76,1.76,0,0,1,334.22,195.89Z" style="fill:#fff"></path><path d="M329,200.71a1.05,1.05,0,1,1-1.05-1.05A1,1,0,0,1,329,200.71Z" style="fill:#fff"></path><path d="M326,194.13a.85.85,0,1,1-.85-.85A.85.85,0,0,1,326,194.13Z" style="fill:#fff"></path></g><g style="opacity:0.5"><path d="M294.64,87.9a1.76,1.76,0,1,1-1.76-1.76A1.76,1.76,0,0,1,294.64,87.9Z" style="fill:#fff"></path><path d="M289.37,92.72a1.05,1.05,0,1,1-1.05-1A1,1,0,0,1,289.37,92.72Z" style="fill:#fff"></path><path d="M286.39,86.14a.85.85,0,1,1-.85-.85A.85.85,0,0,1,286.39,86.14Z" style="fill:#fff"></path></g><g style="opacity:0.5"><path d="M72.51,128a1.76,1.76,0,1,1-2.48-.31A1.76,1.76,0,0,1,72.51,128Z" style="fill:#fff"></path><path d="M71.3,135a1.05,1.05,0,0,1-1.66,1.29A1.05,1.05,0,1,1,71.3,135Z" style="fill:#fff"></path><path d="M64.91,131.62a.85.85,0,1,1-1.2-.15A.86.86,0,0,1,64.91,131.62Z" style="fill:#fff"></path></g><g style="opacity:0.5"><path d="M186.59,334.57a1.75,1.75,0,0,1,.61,2.41,1.76,1.76,0,1,1-.61-2.41Z" style="fill:#fff"></path><path d="M188,341.56a1.05,1.05,0,0,1-1.08,1.81,1.05,1.05,0,0,1,1.08-1.81Z" style="fill:#fff"></path><path d="M180.85,340.75a.86.86,0,0,1,.29,1.17.85.85,0,1,1-.29-1.17Z" style="fill:#fff"></path></g><path d="M378.33,159.75a1.68,1.68,0,1,1-1.68-1.68A1.69,1.69,0,0,1,378.33,159.75Z" style="fill:#fff"></path><path d="M402.34,178.1l-3.29,1.14-.93,3.36a.4.4,0,0,1-.7.14l-2.1-2.78-3.48.15a.39.39,0,0,1-.34-.62l2-2.86-1.22-3.26a.4.4,0,0,1,.49-.52l3.33,1,2.72-2.18a.4.4,0,0,1,.64.31l.07,3.48,2.91,1.92A.39.39,0,0,1,402.34,178.1Z" style="fill:#fff"></path><path d="M347.3,84.79,344,85.93l-.93,3.36a.4.4,0,0,1-.7.13l-2.1-2.78-3.48.16a.4.4,0,0,1-.34-.62l2-2.86-1.22-3.26a.4.4,0,0,1,.49-.52l3.33,1,2.72-2.17a.4.4,0,0,1,.65.3l.06,3.48,2.91,1.92A.4.4,0,0,1,347.3,84.79Z" style="fill:#fff"></path><path d="M151.9,74.68l-3.29,1.14-.93,3.36a.4.4,0,0,1-.7.13l-2.1-2.78-3.48.16a.39.39,0,0,1-.34-.62l2-2.86L141.82,70a.4.4,0,0,1,.49-.52l3.33,1,2.73-2.17a.4.4,0,0,1,.64.3l.07,3.48L152,74A.4.4,0,0,1,151.9,74.68Z" style="fill:#fff"></path><circle cx="151.56" cy="175.34" r="1.56" style="fill:#fff"></circle><path d="M140,156.26l-1.33,3.22,1.9,2.92a.39.39,0,0,1-.36.61l-3.47-.26-2.19,2.71a.4.4,0,0,1-.7-.16l-.82-3.39-3.25-1.24a.4.4,0,0,1-.07-.71l3-1.82.18-3.48a.39.39,0,0,1,.65-.28l2.65,2.25,3.37-.9A.39.39,0,0,1,140,156.26Z" style="fill:#fff"></path><path d="M108.7,277.23l-2.9,1.94,0,3.48a.4.4,0,0,1-.64.31l-2.74-2.15-3.33,1a.4.4,0,0,1-.49-.52l1.21-3.27-2-2.84a.39.39,0,0,1,.34-.62l3.48.13,2.08-2.79a.39.39,0,0,1,.7.13l1,3.35,3.3,1.12A.39.39,0,0,1,108.7,277.23Z" style="fill:#fff"></path></g></g><g id="freepik--Meteorites--inject-1--inject-13"><g id="freepik--meteorites--inject-1--inject-13"><path d="M363.12,219.87a3.14,3.14,0,0,1,6.28,0c0,1.74-1.4,64.3-3.14,64.3S363.12,221.61,363.12,219.87Z" style="fill:#BA68C8"></path><path d="M364.06,219.87a2.2,2.2,0,1,1,2.2,2.2A2.21,2.21,0,0,1,364.06,219.87Z" style="fill:#BA68C8"></path><path d="M364.85,219.87a1.41,1.41,0,1,1,1.41,1.41A1.41,1.41,0,0,1,364.85,219.87Z" style="fill:#fff"></path><path d="M154,282.8a1.67,1.67,0,1,1,3.34,0c0,.92-.74,34.27-1.67,34.27S154,283.72,154,282.8Z" style="fill:#BA68C8"></path><circle cx="155.62" cy="282.8" r="1.17" style="fill:#BA68C8"></circle><path d="M154.87,282.8a.75.75,0,1,1,.75.75A.75.75,0,0,1,154.87,282.8Z" style="fill:#fff"></path><path d="M178.67,152.53a2.19,2.19,0,0,1,4.37,0c0,1.21-1,44.69-2.19,44.69S178.67,153.74,178.67,152.53Z" style="fill:#BA68C8"></path><path d="M179.33,152.53a1.53,1.53,0,1,1,1.52,1.53A1.53,1.53,0,0,1,179.33,152.53Z" style="fill:#BA68C8"></path><circle cx="180.85" cy="152.53" r="0.98" style="fill:#fff"></circle></g></g></svg>