<?xml version="1.0" standalone="no"?>
<!DOCTYPE svg PUBLIC "-//W3C//DTD SVG 20010904//EN"
 "http://www.w3.org/TR/2001/REC-SVG-20010904/DTD/svg10.dtd">
<svg version="1.0" xmlns="http://www.w3.org/2000/svg"
 width="500.000000pt" height="500.000000pt" viewBox="0 0 500.000000 500.000000"
 preserveAspectRatio="xMidYMid meet">
<metadata>
Created by potrace 1.11, written by Peter Selinger 2001-2013
</metadata>
<g transform="translate(0.000000,500.000000) scale(0.100000,-0.100000)"
fill="#000000" stroke="none">
<path d="M2429 4926 c-100 -58 -485 -279 -529 -304 -19 -11 -91 -52 -160 -92
-69 -40 -147 -85 -175 -101 -27 -15 -108 -61 -180 -103 -71 -41 -171 -98 -221
-126 l-90 -51 0 -1650 c0 -907 3 -1649 7 -1649 6 0 161 -89 647 -371 84 -49
154 -89 157 -89 2 0 39 -21 82 -48 43 -26 89 -53 103 -60 14 -6 32 -16 40 -22
33 -21 151 -90 154 -90 3 0 37 -19 78 -43 40 -24 94 -55 119 -70 l47 -26 -2
824 -1 824 35 19 c19 10 105 60 190 109 85 50 198 115 250 145 52 30 266 154
475 275 209 121 400 232 425 246 l45 25 3 824 2 824 -92 54 c-51 30 -100 58
-108 63 -8 4 -37 21 -65 37 -27 17 -75 44 -105 60 -30 17 -69 39 -85 49 -27
16 -786 453 -875 503 -19 11 -49 28 -66 39 l-30 18 -75 -43z"/>
</g>
</svg>
